<mxfile host="app.diagrams.net" agent="Mozilla/5.0 (Macintosh; Intel Mac OS X 10_15_7) AppleWebKit/537.36 (KHTML, like Gecko) Chrome/128.0.0.0 Safari/537.36" version="24.7.12">
  <diagram name="Page-1" id="FD_OUz3d1RAIVJ8vQJLO">
    <mxGraphModel dx="954" dy="639" grid="1" gridSize="10" guides="1" tooltips="1" connect="1" arrows="1" fold="1" page="1" pageScale="1" pageWidth="827" pageHeight="1169" math="0" shadow="0">
      <root>
        <mxCell id="0" />
        <mxCell id="1" parent="0" />
        <mxCell id="P9rQiaXFXBtABEyTWcu9-10" value="" style="ellipse;whiteSpace=wrap;html=1;aspect=fixed;fillColor=none;" parent="1" vertex="1">
          <mxGeometry x="665" y="375" width="290" height="290" as="geometry" />
        </mxCell>
        <mxCell id="5BJddjMu7xcmyxKUvCxP-9" style="edgeStyle=orthogonalEdgeStyle;rounded=0;orthogonalLoop=1;jettySize=auto;html=1;entryX=0.5;entryY=0;entryDx=0;entryDy=0;startArrow=none;startFill=0;endArrow=none;endFill=0;" parent="1" source="5BJddjMu7xcmyxKUvCxP-1" target="5BJddjMu7xcmyxKUvCxP-3" edge="1">
          <mxGeometry relative="1" as="geometry" />
        </mxCell>
        <mxCell id="5BJddjMu7xcmyxKUvCxP-1" value="Negative Perception of Menstruation" style="rounded=1;whiteSpace=wrap;html=1;fillColor=#f5f5f5;strokeColor=#666666;fontColor=#333333;" parent="1" vertex="1">
          <mxGeometry x="200" y="230" width="120" height="60" as="geometry" />
        </mxCell>
        <mxCell id="5BJddjMu7xcmyxKUvCxP-5" style="edgeStyle=orthogonalEdgeStyle;rounded=0;orthogonalLoop=1;jettySize=auto;html=1;entryX=1;entryY=0.5;entryDx=0;entryDy=0;startArrow=none;startFill=0;endArrow=none;endFill=0;" parent="1" source="5BJddjMu7xcmyxKUvCxP-2" target="5BJddjMu7xcmyxKUvCxP-1" edge="1">
          <mxGeometry relative="1" as="geometry">
            <Array as="points">
              <mxPoint x="340" y="260" />
              <mxPoint x="340" y="260" />
            </Array>
          </mxGeometry>
        </mxCell>
        <mxCell id="5BJddjMu7xcmyxKUvCxP-2" value="Lack of Personalised Health Recommendation" style="rounded=1;whiteSpace=wrap;html=1;fillColor=#f5f5f5;strokeColor=#666666;fontColor=#333333;" parent="1" vertex="1">
          <mxGeometry x="380" y="230" width="130" height="60" as="geometry" />
        </mxCell>
        <mxCell id="5BJddjMu7xcmyxKUvCxP-3" value="Not inclusive for sexual and gender minorities" style="rounded=1;whiteSpace=wrap;html=1;fillColor=#f5f5f5;strokeColor=#666666;fontColor=#333333;" parent="1" vertex="1">
          <mxGeometry x="200" y="340" width="120" height="60" as="geometry" />
        </mxCell>
        <mxCell id="5BJddjMu7xcmyxKUvCxP-7" style="edgeStyle=orthogonalEdgeStyle;rounded=0;orthogonalLoop=1;jettySize=auto;html=1;entryX=1;entryY=0.5;entryDx=0;entryDy=0;endArrow=none;endFill=0;" parent="1" source="5BJddjMu7xcmyxKUvCxP-4" target="5BJddjMu7xcmyxKUvCxP-3" edge="1">
          <mxGeometry relative="1" as="geometry" />
        </mxCell>
        <mxCell id="5BJddjMu7xcmyxKUvCxP-4" value="Inadequate adaptation to Hormonal Fluctuations" style="rounded=1;whiteSpace=wrap;html=1;fillColor=#f5f5f5;fontColor=#333333;strokeColor=#666666;" parent="1" vertex="1">
          <mxGeometry x="380" y="340" width="130" height="60" as="geometry" />
        </mxCell>
        <mxCell id="5BJddjMu7xcmyxKUvCxP-6" style="edgeStyle=orthogonalEdgeStyle;rounded=0;orthogonalLoop=1;jettySize=auto;html=1;entryX=0.5;entryY=0;entryDx=0;entryDy=0;endArrow=none;endFill=0;" parent="1" source="5BJddjMu7xcmyxKUvCxP-2" target="5BJddjMu7xcmyxKUvCxP-4" edge="1">
          <mxGeometry relative="1" as="geometry">
            <Array as="points">
              <mxPoint x="450" y="340" />
            </Array>
          </mxGeometry>
        </mxCell>
        <mxCell id="5BJddjMu7xcmyxKUvCxP-10" value="Recommendation Types" style="swimlane;startSize=20;horizontal=0;childLayout=treeLayout;horizontalTree=1;sortEdges=1;resizable=0;containerType=tree;fontSize=12;fillColor=#f5f5f5;fontColor=#333333;strokeColor=#666666;" parent="1" vertex="1">
          <mxGeometry x="260" y="610" width="310" height="160" as="geometry" />
        </mxCell>
        <mxCell id="5BJddjMu7xcmyxKUvCxP-11" value="Recommendation system" style="whiteSpace=wrap;html=1;fillColor=#f5f5f5;fontColor=#333333;strokeColor=#666666;" parent="5BJddjMu7xcmyxKUvCxP-10" vertex="1">
          <mxGeometry x="40" y="60" width="100" height="40" as="geometry" />
        </mxCell>
        <mxCell id="5BJddjMu7xcmyxKUvCxP-12" value="Diet Recommendations" style="whiteSpace=wrap;html=1;fillColor=#f5f5f5;fontColor=#333333;strokeColor=#666666;" parent="5BJddjMu7xcmyxKUvCxP-10" vertex="1">
          <mxGeometry x="190" y="20" width="100" height="40" as="geometry" />
        </mxCell>
        <mxCell id="5BJddjMu7xcmyxKUvCxP-13" value="" style="edgeStyle=elbowEdgeStyle;elbow=horizontal;html=1;rounded=1;curved=0;sourcePerimeterSpacing=0;targetPerimeterSpacing=0;startSize=6;endSize=6;" parent="5BJddjMu7xcmyxKUvCxP-10" source="5BJddjMu7xcmyxKUvCxP-11" target="5BJddjMu7xcmyxKUvCxP-12" edge="1">
          <mxGeometry relative="1" as="geometry" />
        </mxCell>
        <mxCell id="5BJddjMu7xcmyxKUvCxP-14" value="Exercise Recommendations" style="whiteSpace=wrap;html=1;fillColor=#f5f5f5;fontColor=#333333;strokeColor=#666666;" parent="5BJddjMu7xcmyxKUvCxP-10" vertex="1">
          <mxGeometry x="190" y="100" width="100" height="40" as="geometry" />
        </mxCell>
        <mxCell id="5BJddjMu7xcmyxKUvCxP-15" value="" style="edgeStyle=elbowEdgeStyle;elbow=horizontal;html=1;rounded=1;curved=0;sourcePerimeterSpacing=0;targetPerimeterSpacing=0;startSize=6;endSize=6;" parent="5BJddjMu7xcmyxKUvCxP-10" source="5BJddjMu7xcmyxKUvCxP-11" target="5BJddjMu7xcmyxKUvCxP-14" edge="1">
          <mxGeometry relative="1" as="geometry" />
        </mxCell>
        <mxCell id="5BJddjMu7xcmyxKUvCxP-24" value="" style="edgeStyle=orthogonalEdgeStyle;rounded=0;orthogonalLoop=1;jettySize=auto;html=1;" parent="1" source="5BJddjMu7xcmyxKUvCxP-16" target="5BJddjMu7xcmyxKUvCxP-23" edge="1">
          <mxGeometry relative="1" as="geometry" />
        </mxCell>
        <mxCell id="5BJddjMu7xcmyxKUvCxP-16" value="Diet Recommendation Model" style="rounded=0;whiteSpace=wrap;html=1;fillColor=#f5f5f5;strokeColor=#666666;fontColor=#333333;" parent="1" vertex="1">
          <mxGeometry x="290" y="800" width="120" height="60" as="geometry" />
        </mxCell>
        <mxCell id="5BJddjMu7xcmyxKUvCxP-26" value="" style="edgeStyle=orthogonalEdgeStyle;rounded=0;orthogonalLoop=1;jettySize=auto;html=1;" parent="1" source="5BJddjMu7xcmyxKUvCxP-23" target="5BJddjMu7xcmyxKUvCxP-25" edge="1">
          <mxGeometry relative="1" as="geometry" />
        </mxCell>
        <mxCell id="5BJddjMu7xcmyxKUvCxP-23" value="Diet Recommendation based on Phase and food Preferences" style="rounded=0;whiteSpace=wrap;html=1;fillColor=#f5f5f5;fontColor=#333333;strokeColor=#666666;" parent="1" vertex="1">
          <mxGeometry x="290" y="890" width="120" height="60" as="geometry" />
        </mxCell>
        <mxCell id="5BJddjMu7xcmyxKUvCxP-25" value="User feedback" style="rounded=0;whiteSpace=wrap;html=1;fillColor=#f5f5f5;fontColor=#333333;strokeColor=#666666;" parent="1" vertex="1">
          <mxGeometry x="130" y="890" width="120" height="60" as="geometry" />
        </mxCell>
        <mxCell id="5BJddjMu7xcmyxKUvCxP-28" value="" style="edgeStyle=orthogonalEdgeStyle;rounded=0;orthogonalLoop=1;jettySize=auto;html=1;" parent="1" source="5BJddjMu7xcmyxKUvCxP-27" target="5BJddjMu7xcmyxKUvCxP-16" edge="1">
          <mxGeometry relative="1" as="geometry" />
        </mxCell>
        <mxCell id="5BJddjMu7xcmyxKUvCxP-27" value="How many diet recommendations per day?" style="rounded=0;whiteSpace=wrap;html=1;fillColor=#f5f5f5;fontColor=#333333;strokeColor=#666666;" parent="1" vertex="1">
          <mxGeometry x="130" y="800" width="120" height="60" as="geometry" />
        </mxCell>
        <mxCell id="P9rQiaXFXBtABEyTWcu9-1" value="Phase-Based Women&#39;s Health Recommendation System" style="ellipse;whiteSpace=wrap;html=1;fillColor=#f5f5f5;fontColor=#333333;strokeColor=#666666;" parent="1" vertex="1">
          <mxGeometry x="750" y="470" width="120" height="90" as="geometry" />
        </mxCell>
        <mxCell id="P9rQiaXFXBtABEyTWcu9-2" value="Diet Recommendations" style="rounded=1;whiteSpace=wrap;html=1;fillColor=#f5f5f5;fontColor=#333333;strokeColor=#666666;" parent="1" vertex="1">
          <mxGeometry x="750" y="350" width="120" height="60" as="geometry" />
        </mxCell>
        <mxCell id="P9rQiaXFXBtABEyTWcu9-3" value="Exercise Recommendations" style="rounded=1;whiteSpace=wrap;html=1;fillColor=#f5f5f5;fontColor=#333333;strokeColor=#666666;" parent="1" vertex="1">
          <mxGeometry x="610" y="440" width="120" height="60" as="geometry" />
        </mxCell>
        <mxCell id="P9rQiaXFXBtABEyTWcu9-4" value="&amp;nbsp;Personalised recommendations" style="rounded=1;whiteSpace=wrap;html=1;fillColor=#f5f5f5;fontColor=#333333;strokeColor=#666666;" parent="1" vertex="1">
          <mxGeometry x="890" y="440" width="120" height="65" as="geometry" />
        </mxCell>
        <mxCell id="P9rQiaXFXBtABEyTWcu9-5" value="Predictive Model" style="rounded=1;whiteSpace=wrap;html=1;fillColor=#f5f5f5;fontColor=#333333;strokeColor=#666666;" parent="1" vertex="1">
          <mxGeometry x="640" y="585" width="120" height="60" as="geometry" />
        </mxCell>
        <mxCell id="P9rQiaXFXBtABEyTWcu9-6" value="Positive Perception of Menstruation" style="rounded=1;whiteSpace=wrap;html=1;fillColor=#f5f5f5;fontColor=#333333;strokeColor=#666666;" parent="1" vertex="1">
          <mxGeometry x="860" y="585" width="120" height="60" as="geometry" />
        </mxCell>
        <mxCell id="P9rQiaXFXBtABEyTWcu9-7" value="Using feedback and optimisation algorithms" style="rounded=0;whiteSpace=wrap;html=1;" parent="1" vertex="1">
          <mxGeometry x="545" y="820" width="120" height="60" as="geometry" />
        </mxCell>
        <mxCell id="P9rQiaXFXBtABEyTWcu9-8" value="" style="rounded=0;whiteSpace=wrap;html=1;" parent="1" vertex="1">
          <mxGeometry x="545" y="920" width="120" height="60" as="geometry" />
        </mxCell>
      </root>
    </mxGraphModel>
  </diagram>
</mxfile>
